HIERARCHY
ROOT hip
{
  OFFSET 0 0 0
  CHANNELS 6 Xposition Yposition Zposition Zrotation Yrotation Xrotation
  JOINT abdomen
  {
    OFFSET 0 20.6881 -0.73152
    CHANNELS 3 Zrotation Xrotation Yrotation
    JOINT chest
    {
      OFFSET 0 11.7043 -0.48768
      CHANNELS 3 Zrotation Xrotation Yrotation
      JOINT neck
      {
        OFFSET 0 22.1894 -2.19456
        CHANNELS 3 Zrotation Xrotation Yrotation
        JOINT head
        {
          OFFSET -0.24384 7.07133 1.2192
          CHANNELS 3 Zrotation Xrotation Yrotation
          JOINT leftEye
          {
            OFFSET 4.14528 8.04674 8.04672
            CHANNELS 3 Zrotation Xrotation Yrotation
            End Site
            {
              OFFSET 1 0 0
            }
          }
          JOINT rightEye
          {
            OFFSET -3.6576 8.04674 8.04672
            CHANNELS 3 Zrotation Xrotation Yrotation
            End Site
            {
              OFFSET 1 0 0
            }
          }
        }
      }
      JOINT rCollar
      {
        OFFSET -2.68224 19.2634 -4.8768
        CHANNELS 3 Zrotation Xrotation Yrotation
        JOINT rShldr
        {
          OFFSET -8.77824 -1.95073 1.46304
          CHANNELS 3 Zrotation Xrotation Yrotation
          JOINT rForeArm
          {
            OFFSET -28.1742 -1.7115 0.48768
            CHANNELS 3 Zrotation Xrotation Yrotation
            JOINT rHand
            {
              OFFSET -22.5879 0.773209 7.07136
              CHANNELS 3 Zrotation Xrotation Yrotation
              JOINT rThumb1
              {
                OFFSET -1.2192 -0.487915 3.41376
                CHANNELS 3 Zrotation Xrotation Yrotation
                JOINT rThumb2
                {
                  OFFSET -3.37035 -0.52449 3.41376
                  CHANNELS 3 Zrotation Xrotation Yrotation
                  End Site
                  {
                    OFFSET -1.78271 -1.18214 1.43049
                  }
                }
              }
              JOINT rIndex1
              {
                OFFSET -7.75947 0.938293 5.60832
                CHANNELS 3 Zrotation Xrotation Yrotation
                JOINT rIndex2
                {
                  OFFSET -2.54057 -0.884171 1.56538
                  CHANNELS 3 Zrotation Xrotation Yrotation
                  End Site
                  {
                    OFFSET -1.62519 -0.234802 1.16502
                  }
                }
              }
              JOINT rMid1
              {
                OFFSET -8.24714 1.18213 3.41376
                CHANNELS 3 Zrotation Xrotation Yrotation
                JOINT rMid2
                {
                  OFFSET -3.10165 -0.590103 1.0647
                  CHANNELS 3 Zrotation Xrotation Yrotation
                  End Site
                  {
                    OFFSET -2.48547 -0.328903 0.83742
                  }
                }
              }
              JOINT rRing1
              {
                OFFSET -8.82822 0.546677 1.51678
                CHANNELS 3 Zrotation Xrotation Yrotation
                JOINT rRing2
                {
                  OFFSET -2.60934 -0.819778 -0.0198488
                  CHANNELS 3 Zrotation Xrotation Yrotation
                  End Site
                  {
                    OFFSET -2.33842 -0.294052 0.168128
                  }
                }
              }
              JOINT rPinky1
              {
                OFFSET -8.27202 -0.0477905 -0.4584
                CHANNELS 3 Zrotation Xrotation Yrotation
                JOINT rPinky2
                {
                  OFFSET -1.82734 -0.647385 -0.700984
                  CHANNELS 3 Zrotation Xrotation Yrotation
                  End Site
                  {
                    OFFSET -1.69225 -0.51767 -0.607171
                  }
                }
              }
            }
          }
        }
      }
      JOINT lCollar
      {
        OFFSET 2.68224 19.2634 -4.8768
        CHANNELS 3 Zrotation Xrotation Yrotation
        JOINT lShldr
        {
          OFFSET 8.77824 -1.95073 1.46304
          CHANNELS 3 Zrotation Xrotation Yrotation
          JOINT lForeArm
          {
            OFFSET 28.1742 -1.7115 0.48768
            CHANNELS 3 Zrotation Xrotation Yrotation
            JOINT lHand
            {
              OFFSET 22.5879 0.773209 7.07136
              CHANNELS 3 Zrotation Xrotation Yrotation
              JOINT lThumb1
              {
                OFFSET 1.2192 -0.487915 3.41376
                CHANNELS 3 Zrotation Xrotation Yrotation
                JOINT lThumb2
                {
                  OFFSET 3.37035 -0.52449 3.41376
                  CHANNELS 3 Zrotation Xrotation Yrotation
                  End Site
                  {
                    OFFSET 1.78271 -1.18214 1.43049
                  }
                }
              }
              JOINT lIndex1
              {
                OFFSET 7.75947 0.938293 5.60832
                CHANNELS 3 Zrotation Xrotation Yrotation
                JOINT lIndex2
                {
                  OFFSET 2.54057 -0.884171 1.56538
                  CHANNELS 3 Zrotation Xrotation Yrotation
                  End Site
                  {
                    OFFSET 1.62519 -0.234802 1.16502
                  }
                }
              }
              JOINT lMid1
              {
                OFFSET 8.24714 1.18213 3.41376
                CHANNELS 3 Zrotation Xrotation Yrotation
                JOINT lMid2
                {
                  OFFSET 3.10165 -0.590103 1.0647
                  CHANNELS 3 Zrotation Xrotation Yrotation
                  End Site
                  {
                    OFFSET 2.48547 -0.328903 0.83742
                  }
                }
              }
              JOINT lRing1
              {
                OFFSET 8.82822 0.546677 1.51678
                CHANNELS 3 Zrotation Xrotation Yrotation
                JOINT lRing2
                {
                  OFFSET 2.60934 -0.819778 -0.0198488
                  CHANNELS 3 Zrotation Xrotation Yrotation
                  End Site
                  {
                    OFFSET 2.33842 -0.294052 0.168128
                  }
                }
              }
              JOINT lPinky1
              {
                OFFSET 8.27202 -0.0477905 -0.4584
                CHANNELS 3 Zrotation Xrotation Yrotation
                JOINT lPinky2
                {
                  OFFSET 1.82734 -0.647385 -0.700984
                  CHANNELS 3 Zrotation Xrotation Yrotation
                  End Site
                  {
                    OFFSET 1.69225 -0.51767 -0.607171
                  }
                }
              }
            }
          }
        }
      }
    }
  }
  JOINT rButtock
  {
    OFFSET -8.77824 4.35084 1.2192
    CHANNELS 3 Zrotation Xrotation Yrotation
    JOINT rThigh
    {
      OFFSET 0 -1.70687 -2.19456
      CHANNELS 3 Zrotation Xrotation Yrotation
      JOINT rShin
      {
        OFFSET 0 -36.8199 0.73152
        CHANNELS 3 Zrotation Xrotation Yrotation
        JOINT rFoot
        {
          OFFSET 0.73152 -45.1104 -5.12064
          CHANNELS 3 Zrotation Xrotation Yrotation
          End Site
          {
            OFFSET -1.1221 -3.69964 12.103
          }
        }
      }
    }
  }
  JOINT lButtock
  {
    OFFSET 8.77824 4.35084 1.2192
    CHANNELS 3 Zrotation Xrotation Yrotation
    JOINT lThigh
    {
      OFFSET 0 -1.70687 -2.19456
      CHANNELS 3 Zrotation Xrotation Yrotation
      JOINT lShin
      {
        OFFSET 0 -36.8199 0.73152
        CHANNELS 3 Zrotation Xrotation Yrotation
        JOINT lFoot
        {
          OFFSET -0.73152 -45.1104 -5.12064
          CHANNELS 3 Zrotation Xrotation Yrotation
          End Site
          {
            OFFSET 1.1221 -3.69964 12.103
          }
        }
      }
    }
  }
}
MOTION
Frames:	4
Frame Time:	0.00833333
-2.59942 82.4855 49.1784 0.0 0.0 0.0 -4.35903 0.00629551 -0.117465 -1.20168 0.0324825 -0.207697 -1.13867e-13 0.0 -5.46657e-16 -3.40058e-13 -6.36111e-15 -1.98629e-15 -0.0 0.0 0.0 -0.0 0.0 0.0 -5.58647e-14 -5.36563e-16 -1.98785e-16 -1.19289e-12 -1.16848e-14 -9.54166e-15 -2.05764e-11 5.7902e-12 5.725e-14 -2.35792e-10 -8.24842e-12 -1.67933e-12 -5.56136e-10 -5.33169e-12 -3.46999e-12 -9.60432e-10 -9.21089e-12 -5.98103e-12 -5.56128e-10 -5.32902e-12 -3.48907e-12 7.73091 5.47488 0.417314 -5.56138e-10 -5.332e-12 -3.47317e-12 2.90554 0.965183 0.102902 -5.56127e-10 -5.3316e-12 -3.47317e-12 10.2786 0.731801 0.0259123 -5.56142e-10 -5.32822e-12 -3.4668e-12 2.22167 -0.733487 -0.20892 -5.59553e-14 -5.32681e-16 -3.97569e-16 -1.1972e-12 -1.07219e-14 -1.19271e-14 -2.06262e-11 -6.53783e-12 5.40694e-14 -2.35723e-10 4.12399e-12 -1.67615e-12 -5.56095e-10 -5.24338e-12 -3.48271e-12 -9.60333e-10 -9.0614e-12 -6.00409e-12 -5.56101e-10 -5.24036e-12 -3.4668e-12 -7.73091 5.47488 -0.417314 -5.56094e-10 -5.24354e-12 -3.48589e-12 -2.90554 0.965183 -0.102902 -5.56102e-10 -5.24314e-12 -3.48748e-12 -10.2786 0.731801 -0.0259123 -5.56091e-10 -5.24155e-12 -3.49543e-12 -2.22167 -0.733487 0.20892 -2.03217e-16 0.0 -3.88251e-19 -2.89174 -1.94436 0.0304745 -0.0079474 -2.07875 -0.0648697 -0.418716 4.00219 0.126592 2.03217e-16 0.0 3.88251e-19 -3.72536 -11.2507 0.483797 -0.0143128 14.7726 -0.388795 0.544809 -3.54244 0.0125121
-4.55804 82.2039 47.0338 -7.2363 -3.3941 9.3747 -3.05459 -2.6396 0.811826 -1.59019 -2.97557 -0.0508462 -2.29864 3.62329 -3.00577 5.2963 -1.31693 -5.75509 -0.0 0.0 0.0 -0.0 0.0 0.0 -4.88432e-15 -1.22431e-13 5.12608e-15 23.2294 -0.584068 -2.49707 -3.44731 -1.43884 5.51496 0.308332 12.3722 1.59599 -1.4e-09 7.74803e-10 3.76123e-11 -2.4126e-09 1.31255e-09 1.00008e-10 -1.4e-09 7.74804e-10 3.75956e-11 7.73091 5.47488 0.417314 -1.40001e-09 7.74802e-10 3.76078e-11 2.90554 0.965183 0.102902 -1.4e-09 7.74802e-10 3.76081e-11 10.2786 0.731801 0.0259123 -1.40001e-09 7.74806e-10 3.76124e-11 2.22167 -0.733487 -0.20892 -4.93411e-15 -1.22429e-13 4.89779e-15 -22.7592 2.79263 2.08665 2.73893 -1.04781 -4.46782 -0.134866 8.16173 -1.10547 1.8466e-10 -2.27528e-10 -1.08011e-09 2.93456e-10 -4.19245e-10 -1.87727e-09 1.84655e-10 -2.27525e-10 -1.08009e-09 -7.73091 5.47488 -0.417314 1.84662e-10 -2.27529e-10 -1.08011e-09 -2.90554 0.965183 -0.102902 1.84654e-10 -2.27527e-10 -1.08011e-09 -10.2786 0.731801 -0.0259123 1.84665e-10 -2.27526e-10 -1.08012e-09 -2.22167 -0.733487 0.20892 -2.03217e-16 0.0 -3.88251e-19 -2.17452 -2.84931 6.88716 0.00608885 -2.01345 0.056333 -0.837781 1.21495 -6.68705 2.03217e-16 0.0 3.88251e-19 -4.85552 -9.64024 -14.0679 0.0138872 14.4929 -0.0875382 2.16229 -13.4217 16.7056
-4.57036 82.2084 47.035 -7.3012 -3.3789 9.3726 -1.56923 -5.4179 1.80799 -1.99474 -6.16123 0.116481 -4.2979 7.41127 -6.22832 10.6052 -2.66041 -11.8593 -0.0 0.0 0.0 -0.0 0.0 0.0 5.38124e-14 -2.61536e-13 1.02157e-14 47.7429 -1.20596 -5.13413 -6.79958 -2.92018 11.3685 -0.187806 25.4145 3.55053 -2.38248e-09 1.67856e-09 7.0046e-11 -4.10392e-09 2.84455e-09 1.96341e-10 -2.38247e-09 1.67856e-09 7.00316e-11 7.73091 5.47488 0.417314 -2.38248e-09 1.67856e-09 7.00398e-11 2.90554 0.965183 0.102902 -2.38247e-09 1.67856e-09 7.00406e-11 10.2786 0.731801 0.0259123 -2.38249e-09 1.67856e-09 7.00426e-11 2.22167 -0.733487 -0.20892 5.38082e-14 -2.61536e-13 9.95476e-15 -47.0331 5.76004 4.30622 5.45479 -2.1329 -9.19167 0.0788221 16.7817 -2.35153 1.01269e-09 -4.96534e-10 -2.33395e-09 1.69376e-09 -9.14281e-10 -4.05615e-09 1.01269e-09 -4.96532e-10 -2.33394e-09 -7.73091 5.47488 -0.417314 1.01269e-09 -4.96536e-10 -2.33395e-09 -2.90554 0.965183 -0.102902 1.01269e-09 -4.96532e-10 -2.33395e-09 -10.2786 0.731801 -0.0259123 1.0127e-09 -4.96531e-10 -2.33396e-09 -2.22167 -0.733487 0.20892 -2.03217e-16 0.0 -3.88251e-19 -1.17058 -3.72813 14.1456 0.0206332 -1.94167 0.184434 -1.99495 -1.66476 -13.8875 2.03217e-16 0.0 3.88251e-19 -5.16158 -7.45338 -29.2865 0.0467947 14.1929 0.229321 10.081 -20.6792 36.0251
-4.57311 82.209 47.0367 -7.3195 -3.3634 9.3651 -0.186262 -7.92354 2.69356 -2.31744 -8.99159 0.266334 -5.74343 10.7492 -9.16137 15.1071 -3.7917 -17.2998 -0.0 0.0 0.0 -0.0 0.0 0.0 9.70765e-14 -3.66219e-13 1.57758e-14 69.5359 -1.7389 -7.49428 -9.52194 -4.15683 16.5845 -1.58137 36.9862 5.85857 -3.08774e-09 2.33507e-09 1.19777e-10 -5.31694e-09 3.95606e-09 3.11987e-10 -3.08774e-09 2.33507e-09 1.19765e-10 7.73091 5.47488 0.417314 -3.08774e-09 2.33507e-09 1.1977e-10 2.90554 0.965183 0.102902 -3.08773e-09 2.33507e-09 1.19771e-10 10.2786 0.731801 0.0259123 -3.08775e-09 2.33507e-09 1.19771e-10 2.22167 -0.733487 -0.20892 9.71084e-14 -3.66221e-13 1.54885e-14 -68.892 8.3332 6.3195 7.73093 -3.06707 -13.4208 0.618717 24.4469 -3.60653 1.66617e-09 -6.72098e-10 -3.23336e-09 2.80103e-09 -1.23961e-09 -5.61981e-09 1.66617e-09 -6.72095e-10 -3.23334e-09 -7.73091 5.47488 -0.417314 1.66617e-09 -6.721e-10 -3.23335e-09 -2.90554 0.965183 -0.102902 1.66617e-09 -6.72094e-10 -3.23336e-09 -10.2786 0.731801 -0.0259123 1.66618e-09 -6.72094e-10 -3.23337e-09 -2.22167 -0.733487 0.20892 -2.03217e-16 0.0 -3.88251e-19 -0.10757 -4.41947 20.639 0.0333321 -1.88284 0.29871 -3.62788 -4.06464 -20.3627 2.03217e-16 0.0 3.88251e-19 -4.66552 -5.36806 -42.7767 0.0793868 13.9325 0.512712 21.0849 -22.1853 54.2073
